<svg version="1.1" id="Layer_1" xmlns="http://www.w3.org/2000/svg" xmlns:xlink="http://www.w3.org/1999/xlink" x="0px" y="0px"
	 width="100%" viewBox="0 0 782 192" enable-background="new 0 0 782 192" xml:space="preserve">
<path fill="#F6F6F6" opacity="1.000000" stroke="none" 
	d="
M783.000000,86.000000 
	C783.000000,121.629570 783.000000,157.259140 783.000000,193.000000 
	C678.645813,193.000000 574.291565,193.000000 469.631866,192.621979 
	C474.032013,190.883026 479.378815,190.513596 483.317322,187.966537 
	C493.278839,181.524338 492.097595,166.958374 481.435669,160.669800 
	C477.026917,158.069458 472.097137,156.364029 467.615784,153.871445 
	C464.164398,151.951752 462.317078,148.740631 463.228790,144.642578 
	C464.118439,140.643906 466.885162,137.996826 470.882385,137.909271 
	C475.717560,137.803375 480.572662,138.608078 485.848358,139.055069 
	C486.240784,137.789307 486.858978,135.795197 487.877136,132.511139 
	C482.155060,131.923080 477.136627,130.901077 472.141724,131.005417 
	C463.301453,131.190063 456.801666,136.458450 455.256653,143.821548 
	C453.656219,151.448868 457.393280,157.854431 465.952148,161.980881 
	C469.380402,163.633728 472.963104,164.978668 476.333069,166.736816 
	C480.646545,168.987228 482.591248,172.767105 481.610077,177.526703 
	C480.618500,182.337006 477.136047,185.222290 472.393463,185.139587 
	C466.908630,185.043930 461.442291,183.888947 455.338043,183.113907 
	C455.018768,184.201752 454.400604,186.308167 453.660126,188.831253 
	C458.431580,190.322342 462.715790,191.661179 467.000000,193.000000 
	C311.778687,193.000000 156.557373,193.000000 1.000000,193.000000 
	C1.000000,146.312973 1.000000,99.625145 1.358388,52.612495 
	C5.281928,71.095238 16.280947,83.003113 35.085926,86.754295 
	C50.682236,89.865425 64.792831,87.023010 75.694908,73.472519 
	C70.437279,69.554749 65.460365,65.846169 60.531509,62.173389 
	C50.526802,72.429047 38.659386,73.614098 29.284931,65.581558 
	C18.863008,56.651497 17.371460,38.340359 26.158554,27.030313 
	C30.024719,22.054094 35.132034,19.276627 41.367935,18.491037 
	C48.537811,17.587786 54.621914,19.891415 59.661934,25.016996 
	C64.451355,21.079620 68.930931,17.396971 74.571053,12.760232 
	C69.327766,9.547439 64.905289,6.442105 60.125790,4.050169 
	C57.019657,2.495680 53.393288,1.980704 50.000000,1.000000 
	C122.354225,1.000000 194.708450,1.000000 267.403229,1.365863 
	C266.765961,1.921859 265.779907,2.077442 264.811523,2.307336 
	C251.066498,5.570384 243.018524,14.422846 242.508041,26.825293 
	C242.010147,38.921761 247.620255,45.434090 262.574127,50.317230 
	C266.824432,51.705154 271.068054,53.172421 275.168518,54.942078 
	C278.521149,56.388981 281.255798,58.799904 280.836243,62.899536 
	C280.405731,67.105873 277.374146,69.055031 273.559967,70.103416 
	C265.065918,72.438148 258.377411,69.137474 252.537155,63.176250 
	C248.157684,68.025475 243.975143,72.656624 239.658859,77.435898 
	C251.259003,87.590599 264.268860,89.753792 278.318451,86.483025 
	C291.531860,83.406906 298.943024,74.181870 299.165375,61.441769 
	C299.379028,49.198738 293.459625,42.174789 279.616180,38.046406 
	C275.326263,36.767075 271.038055,35.414322 266.892853,33.739296 
	C263.657562,32.431965 261.195557,30.112562 261.543243,26.169992 
	C261.904449,22.074091 264.822662,20.150394 268.342010,19.123180 
	C275.217896,17.116301 281.342865,18.940414 286.835693,23.635328 
	C291.058899,18.984575 295.031189,14.610099 299.479492,9.711421 
	C296.051788,7.714387 293.218079,5.647106 290.068939,4.339324 
	C286.527771,2.868727 282.701965,2.083413 279.000000,0.999998 
	C447.000000,1.000000 615.000000,1.000000 783.000000,1.000000 
	C783.000000,23.430197 783.000000,45.746441 782.537109,68.452217 
	C771.471619,68.841751 760.868958,68.841751 749.893311,68.841751 
	C749.893311,46.900681 749.893311,25.491194 749.893311,3.835450 
	C743.463379,3.835450 737.416748,3.835450 731.427917,3.835450 
	C731.427917,31.259233 731.427917,58.325298 731.427917,86.000000 
	C748.802856,86.000000 765.901428,86.000000 783.000000,86.000000 
M494.866180,4.895802 
	C494.866180,31.803305 494.866180,58.710808 494.866180,85.515282 
	C501.328064,85.515282 507.070160,85.515282 513.138123,85.515282 
	C513.138123,66.455551 513.138123,47.724403 513.138123,27.910620 
	C514.771545,30.438368 515.844849,32.027050 516.846069,33.659924 
	C526.841980,49.961872 536.793457,66.291283 546.872314,82.541718 
	C547.719299,83.907295 549.359497,85.639114 550.697693,85.698311 
	C557.793945,86.012230 564.911438,85.845810 572.106812,85.845810 
	C572.106812,58.128647 572.106812,30.920944 572.106812,3.824553 
	C565.915344,3.824553 560.147156,3.824553 553.832275,3.824553 
	C553.832275,22.311810 553.832275,40.448139 553.832275,59.371418 
	C553.082642,58.303806 552.880920,58.047535 552.711853,57.771305 
	C542.382507,40.896549 532.091980,23.997787 521.667297,7.182168 
	C520.733032,5.675149 518.957336,3.692657 517.528625,3.656395 
	C510.080505,3.467348 502.618164,3.836734 494.866180,4.895802 
M217.040482,5.196752 
	C201.822601,4.376400 186.604721,3.556049 171.341064,2.733229 
	C171.341064,31.186823 171.341064,58.397953 171.341064,85.519440 
	C177.437225,85.519440 183.184097,85.519440 189.271698,85.519440 
	C189.271698,74.589508 189.271698,63.979534 189.271698,53.467381 
	C195.036407,52.045860 198.686096,53.115269 201.191437,58.991650 
	C204.695465,67.210487 209.327820,74.955566 213.633606,82.817795 
	C214.311478,84.055534 215.777191,85.652260 216.939087,85.703171 
	C223.355911,85.984337 229.791473,85.837685 237.086273,85.837685 
	C229.972000,73.958321 223.264206,62.757683 216.544449,51.537067 
	C229.864670,45.451286 234.081955,39.560207 233.844498,27.578722 
	C233.624619,16.484098 228.764130,9.787809 217.040482,5.196752 
M347.167816,3.995028 
	C347.055756,4.809793 346.846375,5.624493 346.845825,6.439335 
	C346.828766,31.916834 346.827850,57.394352 346.849060,82.871841 
	C346.849854,83.796646 347.097778,84.721230 347.212128,85.517731 
	C353.321320,85.517731 359.057007,85.517731 365.090149,85.517731 
	C365.090149,74.589104 365.090149,63.982437 365.090149,53.190529 
	C368.164886,53.190529 370.933319,53.190529 373.778656,53.190529 
	C378.939484,63.075493 384.035950,72.961899 389.296906,82.759987 
	C389.973633,84.020332 391.466949,85.646194 392.645325,85.699341 
	C399.048584,85.988152 405.471710,85.836525 412.862488,85.836525 
	C405.674805,73.834740 398.973419,62.644886 392.131012,51.219604 
	C399.592896,49.348118 405.246155,45.387192 407.950836,38.036514 
	C414.250732,20.914957 404.759857,5.443951 386.411713,4.135725 
	C373.656281,3.226259 360.801971,3.704270 347.167816,3.995028 
M478.181671,6.769629 
	C478.711182,3.494142 476.685120,3.442977 474.275238,3.461388 
	C464.451538,3.536439 454.626923,3.494048 444.802643,3.494522 
	C437.524902,3.494873 430.247162,3.494591 422.819824,3.494591 
	C422.819824,31.219124 422.819824,58.418682 422.819824,85.645813 
	C442.103607,85.645813 461.037842,85.645813 480.255676,85.645813 
	C480.255676,80.026611 480.255676,74.611717 480.255676,68.760384 
	C467.113068,68.760384 454.192230,68.760384 441.105316,68.760384 
	C441.105316,63.088314 441.105316,57.852406 441.105316,52.071083 
	C452.897797,52.071083 464.443054,52.071083 475.851166,52.071083 
	C475.851166,46.288059 475.851166,41.056618 475.851166,35.434273 
	C464.109131,35.434273 452.692291,35.434273 441.129944,35.434273 
	C441.129944,30.288900 441.129944,25.547379 441.129944,20.439520 
	C453.514404,20.439520 465.618805,20.439520 478.181427,20.439520 
	C478.181427,15.955889 478.181427,11.833619 478.181671,6.769629 
M121.487343,68.175201 
	C124.816200,68.172554 128.163055,68.382515 131.468430,68.102516 
	C134.304169,67.862312 135.670029,68.929008 136.570419,71.533768 
	C137.922318,75.444687 139.466293,79.310120 141.260254,83.035179 
	C141.835526,84.229675 143.426102,85.659447 144.610611,85.714058 
	C150.533936,85.987167 156.476715,85.839050 162.890137,85.839050 
	C162.221573,84.158081 161.776627,82.946213 161.263809,81.763786 
	C151.368454,58.947681 141.092865,36.285530 131.774780,13.236232 
	C128.706100,5.645520 125.119789,2.040843 116.702446,3.315188 
	C113.381676,3.817935 111.478928,4.383664 110.101707,7.664448 
	C102.463966,25.858953 94.585487,43.952457 86.778252,62.075729 
	C83.454636,69.791000 80.103836,77.494568 76.580818,85.629646 
	C83.704750,85.629646 90.131050,85.629646 96.587837,85.629646 
	C96.961296,84.914978 97.394348,84.205742 97.717026,83.449417 
	C99.847855,78.455109 100.658768,71.499939 104.431129,68.993362 
	C108.271210,66.441772 115.019287,68.266655 121.487343,68.175201 
M640.808044,85.839828 
	C644.971191,85.841927 649.158325,86.099594 653.285095,85.713219 
	C654.815247,85.569954 656.856201,84.241371 657.533081,82.887756 
	C659.453491,79.047157 660.596191,74.820877 662.467957,70.950966 
	C663.073303,69.699371 664.967896,68.333389 666.308716,68.295593 
	C674.794861,68.056320 683.295593,68.037895 691.779907,68.307899 
	C693.237000,68.354279 695.251587,69.816757 695.949585,71.170952 
	C697.919617,74.992783 699.227478,79.150261 701.044800,83.059959 
	C701.568420,84.186447 702.902771,85.671227 703.918213,85.713142 
	C709.955383,85.962357 716.008057,85.836281 722.541016,85.836281 
	C721.770081,83.701897 721.348511,82.294403 720.765808,80.957108 
	C710.893311,58.300789 700.568909,35.826767 691.356201,12.905746 
	C688.298767,5.298813 684.597046,2.381276 676.598694,3.310400 
	C672.959717,3.733129 671.188660,4.599828 669.750061,8.033709 
	C662.700012,24.861902 655.315308,41.549709 648.074585,58.298286 
	C644.214844,67.226379 640.407410,76.177116 636.361877,85.618256 
	C638.003723,85.720695 638.946899,85.779549 640.808044,85.839828 
M604.997925,83.235474 
	C605.666077,84.100693 606.305298,85.687950 607.006958,85.716080 
	C612.275574,85.927299 617.556580,85.831139 623.315918,85.831139 
	C623.315918,63.544548 623.315918,41.808128 623.315918,19.675095 
	C631.227295,19.675095 638.649597,19.675095 646.245361,19.675095 
	C646.245361,14.184002 646.245361,9.100389 646.245361,3.831180 
	C624.611694,3.831180 603.241333,3.831180 581.774231,3.831180 
	C581.774231,9.265716 581.774231,14.358815 581.774231,19.916340 
	C589.613037,19.916340 597.176880,19.916340 604.998169,19.916340 
	C604.998169,41.014286 604.998169,61.645412 604.997925,83.235474 
M423.422455,178.000687 
	C422.351898,171.992401 420.650848,166.323776 414.882172,162.868027 
	C423.507385,157.582108 426.628906,151.377487 424.814728,143.526611 
	C423.204132,136.556747 417.922424,132.421295 408.310822,131.637192 
	C401.925568,131.116302 395.463440,131.538406 388.765167,131.538406 
	C388.765167,152.055496 388.765167,171.456177 388.765167,190.940445 
	C391.316650,190.940445 393.573944,190.940445 396.270721,190.940445 
	C396.270721,182.452072 396.270721,174.190079 396.270721,166.007385 
	C408.556366,164.308090 412.561188,166.864975 415.207123,177.733673 
	C415.757568,179.994720 416.328400,182.251053 416.914246,184.503220 
	C418.813568,191.804626 418.817932,191.803497 426.792297,190.754074 
	C425.762024,186.755829 424.733490,182.764313 423.422455,178.000687 
M347.093170,140.544907 
	C341.466614,157.283249 335.840088,174.021591 330.240601,190.679504 
	C336.191925,192.493881 339.316589,190.738098 340.445465,184.808044 
	C341.207642,180.804260 343.011658,176.998795 344.435150,172.855774 
	C350.537109,172.855774 356.528320,172.686172 362.495148,172.991806 
	C363.763428,173.056793 365.533417,174.611649 366.059204,175.895111 
	C368.108856,180.898361 369.751343,186.068436 371.484680,191.003998 
	C374.431000,191.003998 376.902283,191.003998 379.921906,191.003998 
	C373.132660,171.105423 366.459198,151.546097 359.815887,132.075226 
	C356.356415,132.075226 353.258759,132.075226 350.169189,132.075226 
	C349.189484,134.805862 348.292297,137.306488 347.093170,140.544907 
M316.492371,167.232300 
	C318.806458,166.362595 321.280334,165.774704 323.404755,164.570374 
	C329.767029,160.963486 332.872375,153.976578 331.783997,146.262756 
	C330.738129,138.850464 326.457825,133.543350 319.264130,132.609924 
	C311.385681,131.587662 303.272186,132.377289 295.284668,132.377289 
	C295.284668,152.257095 295.284668,171.638336 295.284668,190.866547 
	C297.989563,190.866547 300.394043,190.866547 303.088623,190.866547 
	C303.088623,183.128723 303.088623,175.700394 303.088623,168.267929 
	C307.490692,167.990433 311.581757,167.732529 316.492371,167.232300 
M443.208344,190.951080 
	C443.423370,185.019119 443.783722,179.088150 443.824066,173.154999 
	C443.916718,159.536591 443.853424,145.917145 443.853424,132.057922 
	C441.007996,132.057922 438.612549,132.057922 436.088562,132.057922 
	C436.088562,151.814117 436.088562,171.369339 436.088562,191.168411 
	C438.332153,191.168411 440.304443,191.168411 443.208344,190.951080 
z"/>
<path fill="#070707" opacity="1.000000" stroke="none" 
	d="
M278.541931,0.999998 
	C282.701965,2.083413 286.527771,2.868727 290.068939,4.339324 
	C293.218079,5.647106 296.051788,7.714387 299.479492,9.711421 
	C295.031189,14.610099 291.058899,18.984575 286.835693,23.635328 
	C281.342865,18.940414 275.217896,17.116301 268.342010,19.123180 
	C264.822662,20.150394 261.904449,22.074091 261.543243,26.169992 
	C261.195557,30.112562 263.657562,32.431965 266.892853,33.739296 
	C271.038055,35.414322 275.326263,36.767075 279.616180,38.046406 
	C293.459625,42.174789 299.379028,49.198738 299.165375,61.441769 
	C298.943024,74.181870 291.531860,83.406906 278.318451,86.483025 
	C264.268860,89.753792 251.259003,87.590599 239.658859,77.435898 
	C243.975143,72.656624 248.157684,68.025475 252.537155,63.176250 
	C258.377411,69.137474 265.065918,72.438148 273.559967,70.103416 
	C277.374146,69.055031 280.405731,67.105873 280.836243,62.899536 
	C281.255798,58.799904 278.521149,56.388981 275.168518,54.942078 
	C271.068054,53.172421 266.824432,51.705154 262.574127,50.317230 
	C247.620255,45.434090 242.010147,38.921761 242.508041,26.825293 
	C243.018524,14.422846 251.066498,5.570384 264.811523,2.307336 
	C265.779907,2.077442 266.765961,1.921859 267.871887,1.365863 
	C271.361298,1.000000 274.722565,1.000000 278.541931,0.999998 
z"/>
<path fill="#060606" opacity="1.000000" stroke="none" 
	d="
M49.541931,1.000000 
	C53.393288,1.980704 57.019657,2.495680 60.125790,4.050169 
	C64.905289,6.442105 69.327766,9.547439 74.571053,12.760232 
	C68.930931,17.396971 64.451355,21.079620 59.661934,25.016996 
	C54.621914,19.891415 48.537811,17.587786 41.367935,18.491037 
	C35.132034,19.276627 30.024719,22.054094 26.158554,27.030313 
	C17.371460,38.340359 18.863008,56.651497 29.284931,65.581558 
	C38.659386,73.614098 50.526802,72.429047 60.531509,62.173389 
	C65.460365,65.846169 70.437279,69.554749 75.694908,73.472519 
	C64.792831,87.023010 50.682236,89.865425 35.085926,86.754295 
	C16.280947,83.003113 5.281928,71.095238 1.358388,52.143837 
	C1.000000,47.310745 1.000000,42.621487 1.368139,37.357849 
	C6.224725,16.344463 17.231535,5.670321 37.574791,1.972093 
	C38.091682,1.878126 38.526764,1.334119 39.000000,1.000000 
	C42.361286,1.000000 45.722576,1.000000 49.541931,1.000000 
z"/>
<path fill="#090909" opacity="1.000000" stroke="none" 
	d="
M783.000000,85.532394 
	C765.901428,86.000000 748.802856,86.000000 731.427917,86.000000 
	C731.427917,58.325298 731.427917,31.259233 731.427917,3.835450 
	C737.416748,3.835450 743.463379,3.835450 749.893311,3.835450 
	C749.893311,25.491194 749.893311,46.900681 749.893311,68.841751 
	C760.868958,68.841751 771.471619,68.841751 782.537109,68.920876 
	C783.000000,74.354927 783.000000,79.709862 783.000000,85.532394 
z"/>
<path fill="#0B0B0B" opacity="1.000000" stroke="none" 
	d="
M467.333313,193.000000 
	C462.715790,191.661179 458.431580,190.322342 453.660126,188.831253 
	C454.400604,186.308167 455.018768,184.201752 455.338043,183.113907 
	C461.442291,183.888947 466.908630,185.043930 472.393463,185.139587 
	C477.136047,185.222290 480.618500,182.337006 481.610077,177.526703 
	C482.591248,172.767105 480.646545,168.987228 476.333069,166.736816 
	C472.963104,164.978668 469.380402,163.633728 465.952148,161.980881 
	C457.393280,157.854431 453.656219,151.448868 455.256653,143.821548 
	C456.801666,136.458450 463.301453,131.190063 472.141724,131.005417 
	C477.136627,130.901077 482.155060,131.923080 487.877136,132.511139 
	C486.858978,135.795197 486.240784,137.789307 485.848358,139.055069 
	C480.572662,138.608078 475.717560,137.803375 470.882385,137.909271 
	C466.885162,137.996826 464.118439,140.643906 463.228790,144.642578 
	C462.317078,148.740631 464.164398,151.951752 467.615784,153.871445 
	C472.097137,156.364029 477.026917,158.069458 481.435669,160.669800 
	C492.097595,166.958374 493.278839,181.524338 483.317322,187.966537 
	C479.378815,190.513596 474.032013,190.883026 469.163208,192.621979 
	C468.555542,193.000000 468.111115,193.000000 467.333313,193.000000 
z"/>
<path fill="#F3F3F3" opacity="1.000000" stroke="none" 
	d="
M38.531342,1.000000 
	C38.526764,1.334119 38.091682,1.878126 37.574791,1.972093 
	C17.231535,5.670321 6.224725,16.344463 1.368139,36.891731 
	C1.000000,25.071398 1.000000,13.142795 1.000000,1.000000 
	C13.353403,1.000000 25.708044,1.000000 38.531342,1.000000 
z"/>
<path fill="#080808" opacity="1.000000" stroke="none" 
	d="
M495.013489,4.453800 
	C502.618164,3.836734 510.080505,3.467348 517.528625,3.656395 
	C518.957336,3.692657 520.733032,5.675149 521.667297,7.182168 
	C532.091980,23.997787 542.382507,40.896549 552.711853,57.771305 
	C552.880920,58.047535 553.082642,58.303806 553.832275,59.371418 
	C553.832275,40.448139 553.832275,22.311810 553.832275,3.824553 
	C560.147156,3.824553 565.915344,3.824553 572.106812,3.824553 
	C572.106812,30.920944 572.106812,58.128647 572.106812,85.845810 
	C564.911438,85.845810 557.793945,86.012230 550.697693,85.698311 
	C549.359497,85.639114 547.719299,83.907295 546.872314,82.541718 
	C536.793457,66.291283 526.841980,49.961872 516.846069,33.659924 
	C515.844849,32.027050 514.771545,30.438368 513.138123,27.910620 
	C513.138123,47.724403 513.138123,66.455551 513.138123,85.515282 
	C507.070160,85.515282 501.328064,85.515282 494.866180,85.515282 
	C494.866180,58.710808 494.866180,31.803305 495.013489,4.453800 
z"/>
<path fill="#060606" opacity="1.000000" stroke="none" 
	d="
M217.418427,5.332959 
	C228.764130,9.787809 233.624619,16.484098 233.844498,27.578722 
	C234.081955,39.560207 229.864670,45.451286 216.544449,51.537067 
	C223.264206,62.757683 229.972000,73.958321 237.086273,85.837685 
	C229.791473,85.837685 223.355911,85.984337 216.939087,85.703171 
	C215.777191,85.652260 214.311478,84.055534 213.633606,82.817795 
	C209.327820,74.955566 204.695465,67.210487 201.191437,58.991650 
	C198.686096,53.115269 195.036407,52.045860 189.271698,53.467381 
	C189.271698,63.979534 189.271698,74.589508 189.271698,85.519440 
	C183.184097,85.519440 177.437225,85.519440 171.341064,85.519440 
	C171.341064,58.397953 171.341064,31.186823 171.341064,2.733229 
	C186.604721,3.556049 201.822601,4.376400 217.418427,5.332959 
M202.203552,19.005383 
	C197.946899,19.005383 193.690231,19.005383 189.511139,19.005383 
	C189.511139,25.453318 189.511139,31.310658 189.511139,36.984459 
	C195.484329,36.984459 201.118134,37.285145 206.703522,36.894142 
	C211.621353,36.549873 214.525650,33.321255 214.826157,28.982075 
	C215.134949,24.523352 212.744720,21.267050 207.992294,19.898237 
	C206.413391,19.443476 204.743927,19.303045 202.203552,19.005383 
z"/>
<path fill="#060606" opacity="1.000000" stroke="none" 
	d="
M347.579834,3.778727 
	C360.801971,3.704270 373.656281,3.226259 386.411713,4.135725 
	C404.759857,5.443951 414.250732,20.914957 407.950836,38.036514 
	C405.246155,45.387192 399.592896,49.348118 392.131012,51.219604 
	C398.973419,62.644886 405.674805,73.834740 412.862488,85.836525 
	C405.471710,85.836525 399.048584,85.988152 392.645325,85.699341 
	C391.466949,85.646194 389.973633,84.020332 389.296906,82.759987 
	C384.035950,72.961899 378.939484,63.075493 373.778656,53.190529 
	C370.933319,53.190529 368.164886,53.190529 365.090149,53.190529 
	C365.090149,63.982437 365.090149,74.589104 365.090149,85.517731 
	C359.057007,85.517731 353.321320,85.517731 347.212128,85.517731 
	C347.097778,84.721230 346.849854,83.796646 346.849060,82.871841 
	C346.827850,57.394352 346.828766,31.916834 346.845825,6.439335 
	C346.846375,5.624493 347.055756,4.809793 347.579834,3.778727 
M364.998199,32.309669 
	C364.998199,33.915207 364.998199,35.520741 364.998199,37.006386 
	C371.097595,37.006386 376.719482,37.275009 382.302826,36.926353 
	C387.293610,36.614704 390.191528,33.523529 390.492676,29.175251 
	C390.826263,24.358503 388.585327,20.765953 383.434418,19.948030 
	C377.482819,19.002970 371.371338,19.065088 364.998322,18.669342 
	C364.998322,23.451139 364.998322,27.404568 364.998199,32.309669 
z"/>
<path fill="#090909" opacity="1.000000" stroke="none" 
	d="
M478.181549,7.240489 
	C478.181427,11.833619 478.181427,15.955889 478.181427,20.439520 
	C465.618805,20.439520 453.514404,20.439520 441.129944,20.439520 
	C441.129944,25.547379 441.129944,30.288900 441.129944,35.434273 
	C452.692291,35.434273 464.109131,35.434273 475.851166,35.434273 
	C475.851166,41.056618 475.851166,46.288059 475.851166,52.071083 
	C464.443054,52.071083 452.897797,52.071083 441.105316,52.071083 
	C441.105316,57.852406 441.105316,63.088314 441.105316,68.760384 
	C454.192230,68.760384 467.113068,68.760384 480.255676,68.760384 
	C480.255676,74.611717 480.255676,80.026611 480.255676,85.645813 
	C461.037842,85.645813 442.103607,85.645813 422.819824,85.645813 
	C422.819824,58.418682 422.819824,31.219124 422.819824,3.494591 
	C430.247162,3.494591 437.524902,3.494873 444.802643,3.494522 
	C454.626923,3.494048 464.451538,3.536439 474.275238,3.461388 
	C476.685120,3.442977 478.711182,3.494142 478.181549,7.240489 
z"/>
<path fill="#060606" opacity="1.000000" stroke="none" 
	d="
M120.990692,68.175201 
	C115.019287,68.266655 108.271210,66.441772 104.431129,68.993362 
	C100.658768,71.499939 99.847855,78.455109 97.717026,83.449417 
	C97.394348,84.205742 96.961296,84.914978 96.587837,85.629646 
	C90.131050,85.629646 83.704750,85.629646 76.580818,85.629646 
	C80.103836,77.494568 83.454636,69.791000 86.778252,62.075729 
	C94.585487,43.952457 102.463966,25.858953 110.101707,7.664448 
	C111.478928,4.383664 113.381676,3.817935 116.702446,3.315188 
	C125.119789,2.040843 128.706100,5.645520 131.774780,13.236232 
	C141.092865,36.285530 151.368454,58.947681 161.263809,81.763786 
	C161.776627,82.946213 162.221573,84.158081 162.890137,85.839050 
	C156.476715,85.839050 150.533936,85.987167 144.610611,85.714058 
	C143.426102,85.659447 141.835526,84.229675 141.260254,83.035179 
	C139.466293,79.310120 137.922318,75.444687 136.570419,71.533768 
	C135.670029,68.929008 134.304169,67.862312 131.468430,68.102516 
	C128.163055,68.382515 124.816200,68.172554 120.990692,68.175201 
M122.359901,36.120518 
	C121.415192,33.770176 120.470474,31.419836 119.093163,27.993252 
	C115.674706,36.765465 112.660629,44.499973 109.483788,52.652161 
	C116.236382,52.652161 122.291328,52.652161 128.840637,52.652161 
	C126.748940,47.214241 124.743683,42.001053 122.359901,36.120518 
z"/>
<path fill="#060606" opacity="1.000000" stroke="none" 
	d="
M640.349121,85.839111 
	C638.946899,85.779549 638.003723,85.720695 636.361877,85.618256 
	C640.407410,76.177116 644.214844,67.226379 648.074585,58.298286 
	C655.315308,41.549709 662.700012,24.861902 669.750061,8.033709 
	C671.188660,4.599828 672.959717,3.733129 676.598694,3.310400 
	C684.597046,2.381276 688.298767,5.298813 691.356201,12.905746 
	C700.568909,35.826767 710.893311,58.300789 720.765808,80.957108 
	C721.348511,82.294403 721.770081,83.701897 722.541016,85.836281 
	C716.008057,85.836281 709.955383,85.962357 703.918213,85.713142 
	C702.902771,85.671227 701.568420,84.186447 701.044800,83.059959 
	C699.227478,79.150261 697.919617,74.992783 695.949585,71.170952 
	C695.251587,69.816757 693.237000,68.354279 691.779907,68.307899 
	C683.295593,68.037895 674.794861,68.056320 666.308716,68.295593 
	C664.967896,68.333389 663.073303,69.699371 662.467957,70.950966 
	C660.596191,74.820877 659.453491,79.047157 657.533081,82.887756 
	C656.856201,84.241371 654.815247,85.569954 653.285095,85.713219 
	C649.158325,86.099594 644.971191,85.841927 640.349121,85.839111 
M686.844910,47.833069 
	C684.278442,41.499821 681.711975,35.166573 678.779663,27.930563 
	C675.366760,36.857090 672.399597,44.617893 669.341309,52.616943 
	C676.117737,52.616943 682.023315,52.616943 688.378601,52.616943 
	C687.869324,51.044800 687.475891,49.830177 686.844910,47.833069 
z"/>
<path fill="#050505" opacity="1.000000" stroke="none" 
	d="
M604.998047,82.756004 
	C604.998169,61.645412 604.998169,41.014286 604.998169,19.916340 
	C597.176880,19.916340 589.613037,19.916340 581.774231,19.916340 
	C581.774231,14.358815 581.774231,9.265716 581.774231,3.831180 
	C603.241333,3.831180 624.611694,3.831180 646.245361,3.831180 
	C646.245361,9.100389 646.245361,14.184002 646.245361,19.675095 
	C638.649597,19.675095 631.227295,19.675095 623.315918,19.675095 
	C623.315918,41.808128 623.315918,63.544548 623.315918,85.831139 
	C617.556580,85.831139 612.275574,85.927299 607.006958,85.716080 
	C606.305298,85.687950 605.666077,84.100693 604.998047,82.756004 
z"/>
<path fill="#0A0A0A" opacity="1.000000" stroke="none" 
	d="
M423.563690,178.386749 
	C424.733490,182.764313 425.762024,186.755829 426.792297,190.754074 
	C418.817932,191.803497 418.813568,191.804626 416.914246,184.503220 
	C416.328400,182.251053 415.757568,179.994720 415.207123,177.733673 
	C412.561188,166.864975 408.556366,164.308090 396.270721,166.007385 
	C396.270721,174.190079 396.270721,182.452072 396.270721,190.940445 
	C393.573944,190.940445 391.316650,190.940445 388.765167,190.940445 
	C388.765167,171.456177 388.765167,152.055496 388.765167,131.538406 
	C395.463440,131.538406 401.925568,131.116302 408.310822,131.637192 
	C417.922424,132.421295 423.204132,136.556747 424.814728,143.526611 
	C426.628906,151.377487 423.507385,157.582108 414.882172,162.868027 
	C420.650848,166.323776 422.351898,171.992401 423.563690,178.386749 
M414.503784,141.088806 
	C408.974487,136.407242 402.741058,137.129593 396.366699,138.322647 
	C396.366699,145.466202 396.366699,152.201935 396.366699,159.303818 
	C399.995728,159.303818 403.474792,159.684799 406.841431,159.231125 
	C416.274567,157.959961 419.841125,150.083740 414.503784,141.088806 
z"/>
<path fill="#0B0B0B" opacity="1.000000" stroke="none" 
	d="
M347.244141,140.176010 
	C348.292297,137.306488 349.189484,134.805862 350.169189,132.075226 
	C353.258759,132.075226 356.356415,132.075226 359.815887,132.075226 
	C366.459198,151.546097 373.132660,171.105423 379.921906,191.003998 
	C376.902283,191.003998 374.431000,191.003998 371.484680,191.003998 
	C369.751343,186.068436 368.108856,180.898361 366.059204,175.895111 
	C365.533417,174.611649 363.763428,173.056793 362.495148,172.991806 
	C356.528320,172.686172 350.537109,172.855774 344.435150,172.855774 
	C343.011658,176.998795 341.207642,180.804260 340.445465,184.808044 
	C339.316589,190.738098 336.191925,192.493881 330.240601,190.679504 
	C335.840088,174.021591 341.466614,157.283249 347.244141,140.176010 
M347.403503,162.244019 
	C347.059204,163.453064 346.714935,164.662094 346.269501,166.226349 
	C352.121948,166.226349 357.470825,166.226349 363.342987,166.226349 
	C360.405914,157.372147 357.606506,148.932953 354.692230,140.147430 
	C352.259003,147.639359 350.011627,154.558975 347.403503,162.244019 
z"/>
<path fill="#070707" opacity="1.000000" stroke="none" 
	d="
M316.082581,167.353455 
	C311.581757,167.732529 307.490692,167.990433 303.088623,168.267929 
	C303.088623,175.700394 303.088623,183.128723 303.088623,190.866547 
	C300.394043,190.866547 297.989563,190.866547 295.284668,190.866547 
	C295.284668,171.638336 295.284668,152.257095 295.284668,132.377289 
	C303.272186,132.377289 311.385681,131.587662 319.264130,132.609924 
	C326.457825,133.543350 330.738129,138.850464 331.783997,146.262756 
	C332.872375,153.976578 329.767029,160.963486 323.404755,164.570374 
	C321.280334,165.774704 318.806458,166.362595 316.082581,167.353455 
M303.112244,138.791626 
	C303.112244,146.192566 303.112244,153.593491 303.112244,161.781418 
	C307.417999,161.483521 311.250336,161.616898 314.905060,160.875153 
	C320.871490,159.664246 324.373657,154.475967 323.981781,148.343185 
	C323.608948,142.508316 319.525421,138.412704 313.239471,137.961975 
	C310.106995,137.737381 306.936279,138.046402 303.112244,138.791626 
z"/>
<path fill="#0A0A0A" opacity="1.000000" stroke="none" 
	d="
M442.742554,191.059753 
	C440.304443,191.168411 438.332153,191.168411 436.088562,191.168411 
	C436.088562,171.369339 436.088562,151.814117 436.088562,132.057922 
	C438.612549,132.057922 441.007996,132.057922 443.853424,132.057922 
	C443.853424,145.917145 443.916718,159.536591 443.824066,173.154999 
	C443.783722,179.088150 443.423370,185.019119 442.742554,191.059753 
z"/>
<path fill="#F1F1F1" opacity="1.000000" stroke="none" 
	d="
M202.659714,19.012146 
	C204.743927,19.303045 206.413391,19.443476 207.992294,19.898237 
	C212.744720,21.267050 215.134949,24.523352 214.826157,28.982075 
	C214.525650,33.321255 211.621353,36.549873 206.703522,36.894142 
	C201.118134,37.285145 195.484329,36.984459 189.511139,36.984459 
	C189.511139,31.310658 189.511139,25.453318 189.511139,19.005383 
	C193.690231,19.005383 197.946899,19.005383 202.659714,19.012146 
z"/>
<path fill="#F4F4F4" opacity="1.000000" stroke="none" 
	d="
M364.998260,31.833832 
	C364.998322,27.404568 364.998322,23.451139 364.998322,18.669342 
	C371.371338,19.065088 377.482819,19.002970 383.434418,19.948030 
	C388.585327,20.765953 390.826263,24.358503 390.492676,29.175251 
	C390.191528,33.523529 387.293610,36.614704 382.302826,36.926353 
	C376.719482,37.275009 371.097595,37.006386 364.998199,37.006386 
	C364.998199,35.520741 364.998199,33.915207 364.998260,31.833832 
z"/>
<path fill="#ECECEC" opacity="1.000000" stroke="none" 
	d="
M122.549164,36.454193 
	C124.743683,42.001053 126.748940,47.214241 128.840637,52.652161 
	C122.291328,52.652161 116.236382,52.652161 109.483788,52.652161 
	C112.660629,44.499973 115.674706,36.765465 119.093163,27.993252 
	C120.470474,31.419836 121.415192,33.770176 122.549164,36.454193 
z"/>
<path fill="#ECECEC" opacity="1.000000" stroke="none" 
	d="
M686.963684,48.224312 
	C687.475891,49.830177 687.869324,51.044800 688.378601,52.616943 
	C682.023315,52.616943 676.117737,52.616943 669.341309,52.616943 
	C672.399597,44.617893 675.366760,36.857090 678.779663,27.930563 
	C681.711975,35.166573 684.278442,41.499821 686.963684,48.224312 
z"/>
<path fill="#EEEEEE" opacity="1.000000" stroke="none" 
	d="
M414.758911,141.384048 
	C419.841125,150.083740 416.274567,157.959961 406.841431,159.231125 
	C403.474792,159.684799 399.995728,159.303818 396.366699,159.303818 
	C396.366699,152.201935 396.366699,145.466202 396.366699,138.322647 
	C402.741058,137.129593 408.974487,136.407242 414.758911,141.384048 
z"/>
<path fill="#EDEDED" opacity="1.000000" stroke="none" 
	d="
M347.583893,161.861298 
	C350.011627,154.558975 352.259003,147.639359 354.692230,140.147430 
	C357.606506,148.932953 360.405914,157.372147 363.342987,166.226349 
	C357.470825,166.226349 352.121948,166.226349 346.269501,166.226349 
	C346.714935,164.662094 347.059204,163.453064 347.583893,161.861298 
z"/>
<path fill="#F3F3F3" opacity="1.000000" stroke="none" 
	d="
M303.447571,138.452835 
	C306.936279,138.046402 310.106995,137.737381 313.239471,137.961975 
	C319.525421,138.412704 323.608948,142.508316 323.981781,148.343185 
	C324.373657,154.475967 320.871490,159.664246 314.905060,160.875153 
	C311.250336,161.616898 307.417999,161.483521 303.112244,161.781418 
	C303.112244,153.593491 303.112244,146.192566 303.447571,138.452835 
z"/>
</svg>